<?xml version="1.0" encoding="UTF-8" standalone="no"?>
<!-- Created with Inkscape (http://www.inkscape.org/) -->

<svg
   xmlns:dc="http://purl.org/dc/elements/1.1/"
   xmlns:cc="http://creativecommons.org/ns#"
   xmlns:rdf="http://www.w3.org/1999/02/22-rdf-syntax-ns#"
   xmlns:svg="http://www.w3.org/2000/svg"
   xmlns="http://www.w3.org/2000/svg"
   xmlns:sodipodi="http://sodipodi.sourceforge.net/DTD/sodipodi-0.dtd"
   xmlns:inkscape="http://www.inkscape.org/namespaces/inkscape"
   width="48"
   height="48"
   id="svg4216"
   version="1.1"
   inkscape:version="0.91 r13725"
   viewBox="0 0 48 48"
   sodipodi:docname="nautilus-actions-config-tool.svg">
  <defs
     id="defs4218" />
  <sodipodi:namedview
     id="base"
     pagecolor="#242424"
     bordercolor="#666666"
     borderopacity="1.0"
     inkscape:pageopacity="0"
     inkscape:pageshadow="2"
     inkscape:zoom="11"
     inkscape:cx="25.146224"
     inkscape:cy="21.410661"
     inkscape:current-layer="layer1"
     showgrid="false"
     inkscape:document-units="px"
     inkscape:grid-bbox="true"
     showguides="false"
     inkscape:guide-bbox="true"
     objecttolerance="10000"
     guidetolerance="10000"
     inkscape:snap-path-clip="true"
     inkscape:snap-perpendicular="true"
     inkscape:snap-tangential="true"
     inkscape:window-width="1280"
     inkscape:window-height="987"
     inkscape:window-x="1366"
     inkscape:window-y="0"
     inkscape:window-maximized="1">
    <inkscape:grid
       type="xygrid"
       id="grid4764" />
    <sodipodi:guide
       position="0,57"
       orientation="1,0"
       id="guide4768" />
    <sodipodi:guide
       position="17,0"
       orientation="0,1"
       id="guide4772" />
    <sodipodi:guide
       position="40,48"
       orientation="0,1"
       id="guide4150" />
    <sodipodi:guide
       position="3,41"
       orientation="1,0"
       id="guide4154" />
    <sodipodi:guide
       position="7,45"
       orientation="0,1"
       id="guide4156" />
    <sodipodi:guide
       position="24,3"
       orientation="0,1"
       id="guide4160" />
    <sodipodi:guide
       position="45,23"
       orientation="1,0"
       id="guide4143" />
    <sodipodi:guide
       position="48,35"
       orientation="1,0"
       id="guide4149" />
    <sodipodi:guide
       position="17,16"
       orientation="1,0"
       id="guide4151" />
    <sodipodi:guide
       position="31,14"
       orientation="1,0"
       id="guide4153" />
    <sodipodi:guide
       position="11,31"
       orientation="0,1"
       id="guide4159" />
    <sodipodi:guide
       position="13,17"
       orientation="0,1"
       id="guide4161" />
    <sodipodi:guide
       position="24,39"
       orientation="1,0"
       id="guide4162" />
    <sodipodi:guide
       position="10,38"
       orientation="0.70710678,0.70710678"
       id="guide4185" />
  </sodipodi:namedview>
  <metadata
     id="metadata4221">
    <rdf:RDF>
      <cc:Work
         rdf:about="">
        <dc:format>image/svg+xml</dc:format>
        <dc:type
           rdf:resource="http://purl.org/dc/dcmitype/StillImage" />
        <dc:title />
        <dc:creator>
          <cc:Agent>
            <dc:title>Chris D</dc:title>
          </cc:Agent>
        </dc:creator>
        <dc:description>diazchris.deviantart.com</dc:description>
      </cc:Work>
    </rdf:RDF>
  </metadata>
  <g
     id="layer1"
     inkscape:label="Layer 1"
     inkscape:groupmode="layer"
     transform="translate(0,-16)">
    <rect
       style="opacity:1;fill:#cda467;fill-opacity:1;fill-rule:nonzero;stroke:#cda467;stroke-width:0.5;stroke-linecap:round;stroke-linejoin:round;stroke-miterlimit:4;stroke-dasharray:none;stroke-dashoffset:4;stroke-opacity:1"
       id="rect4183"
       width="21"
       height="16"
       x="15"
       y="-50.797588"
       transform="scale(1,-1)" />
    <path
       sodipodi:type="spiral"
       style="fill:#f0c27e;fill-opacity:1;fill-rule:evenodd;stroke:#cda467;stroke-width:0.5;stroke-linecap:butt;stroke-linejoin:miter;stroke-miterlimit:4;stroke-dasharray:none;stroke-opacity:1"
       id="path4179"
       sodipodi:cx="28.460466"
       sodipodi:cy="-43.334869"
       sodipodi:expansion="29"
       sodipodi:revolution="33.952919"
       sodipodi:radius="27.815487"
       sodipodi:argument="-190.64774"
       sodipodi:t0="0"
       d="m 28.460466,-43.334869 c 0,0 0,0 0,0 0,0 0,0 0,0 0,0 0,0 0,0 0,0 0,0 0,0 0,0 0,0 0,0 0,0 0,0 0,0 0,0 0,0 0,0 0,0 0,0 0,0 0,0 0,0 0,0 0,0 0,0 0,0 0,0 0,0 0,0 0,0 0,0 0,0 0,0 0,0 0,0 0,0 0,0 0,0 0,0 0,0 0,0 0,0 0,0 0,0 0,0 0,0 0,0 0,0 0,0 0,0 0,0 0,0 0,0 0,0 0,0 0,0 0,0 0,0 0,0 0,0 0,0 0,0 0,0 0,0 0,0 0,0 0,0 0,0 0,0 0,0 0,0 0,0 0,0 0,0 0,0 0,0 0,0 0,0 0,0 0,0 0,0 0,0 0,0 0,0 0,0 0,0 0,0 0,0 0,0 0,0 0,0 0,-1e-6 0,0 0,0 1e-6,0 0,0 0,1e-6 0,1e-6 0,0 -1e-6,0 -1e-6,0 -1e-6,0 -1e-6,-1e-6 -1e-6,-1e-6 1e-6,-10e-7 2e-6,-10e-7 2e-6,-10e-7 10e-7,0 2e-6,2e-6 2e-6,3e-6 -1e-6,2e-6 -3e-6,2e-6 -5e-6,2e-6 -2e-6,-1e-6 -3e-6,-4e-6 -2e-6,-6e-6 1e-6,-4e-6 5e-6,-5e-6 8e-6,-4e-6 5e-6,2e-6 7e-6,8e-6 6e-6,1.2e-5 -2e-6,8e-6 -1.1e-5,1e-5 -1.8e-5,8e-6 -10e-6,-3e-6 -1.4e-5,-1.5e-5 -1.1e-5,-2.5e-5 5e-6,-1.4e-5 2.2e-5,-2e-5 3.6e-5,-1.5e-5 2e-5,6e-6 2.8e-5,3e-5 2.1e-5,4.9e-5 -9e-6,2.9e-5 -4.3e-5,4e-5 -7e-5,3.1e-5 -3.9e-5,-1.4e-5 -5.5e-5,-6e-5 -4.2e-5,-9.8e-5 1.9e-5,-5.5e-5 8.4e-5,-7.7e-5 1.36e-4,-5.9e-5 7.7e-5,2.7e-5 1.07e-4,1.17e-4 8.1e-5,1.89e-4 -3.7e-5,1.06e-4 -1.61e-4,1.47e-4 -2.61e-4,1.12e-4 -1.45e-4,-5.1e-5 -2.02e-4,-2.22e-4 -1.53e-4,-3.6e-4 7.1e-5,-1.98e-4 3.05e-4,-2.76e-4 4.94e-4,-2.09e-4 2.71e-4,9.8e-5 3.77e-4,4.17e-4 2.84e-4,6.76e-4 -1.33e-4,3.68e-4 -5.69e-4,5.12e-4 -9.2e-4,3.85e-4 -5e-4,-1.82e-4 -6.95e-4,-7.73e-4 -5.21e-4,-0.0012 2.47e-4,-6.76e-4 0.001,-9.4e-4 0.0017,-7.03e-4 9.11e-4,3.35e-4 0.0013,0.0014 9.44e-4,0.0023 -4.52e-4,0.0012 -0.0019,0.0017 -0.0031,0.0013 -0.0016,-6.1e-4 -0.0023,-0.0026 -0.0017,-0.0041 8.18e-4,-0.0022 0.0034,-0.003 0.0055,-0.0023 0.0029,0.0011 0.004,0.0046 0.003,0.0074 -0.0015,0.0039 -0.0061,0.0054 -0.0098,0.004 -0.0051,-0.002 -0.0071,-0.0081 -0.0052,-0.01299 0.0026,-0.0068 0.01068,-0.0094 0.01719,-0.0069 0.0089,0.0034 0.01238,0.0141 0.0091,0.02267 -0.0045,0.01175 -0.01856,0.01627 -0.02983,0.0119 -0.0154,-0.006 -0.02131,-0.02438 -0.01557,-0.03916 0.0078,-0.02014 0.03193,-0.02786 0.05126,-0.02031 0.02627,0.01026 0.03633,0.04172 0.02643,0.06694 -0.01341,0.03418 -0.05438,0.04725 -0.08721,0.03431 -0.04437,-0.01749 -0.06132,-0.0707 -0.04445,-0.113343 0.02274,-0.05747 0.09172,-0.07939 0.146961,-0.05744 0.07426,0.02951 0.102554,0.118701 0.07406,0.19011 -0.0382,0.09574 -0.153275,0.132178 -0.245372,0.09528 -0.12316,-0.04934 -0.169985,-0.197479 -0.122318,-0.315994 0.06358,-0.158093 0.253875,-0.218132 0.406056,-0.156689 0.2025,0.08176 0.279322,0.325671 0.200296,0.520663 -0.104901,0.258839 -0.416888,0.356931 -0.66621,0.255512 -0.330171,-0.134307 -0.455167,-0.532543 -0.325286,-0.850677 0.171594,-0.420307 0.678892,-0.579265 1.084003,-0.413285 0.533987,0.218783 0.735736,0.863717 0.524059,1.378556 -0.278383,0.677085 -1.096684,0.932646 -1.749686,0.66324 -0.856876,-0.353516 -1.179985,-1.389778 -0.83779,-2.216422 0.448047,-1.082352 1.75783,-1.490094 2.802301,-1.056295 1.364609,0.566762 1.878199,2.219159 1.329335,3.536388 -0.715572,1.717316 -2.796363,2.363055 -4.454523,1.669923 -2.157281,-0.901772 -2.967716,-3.517267 -2.094029,-5.600816 1.134337,-2.705143 4.416068,-3.720484 7.029471,-2.621233 3.386197,1.424304 4.656042,5.534738 3.275494,8.806984 -1.785216,4.231409 -6.924706,5.816834 -11.014808,4.08609 -5.27861,-2.233666 -7.254709,-8.648882 -5.088739,-13.752551 2.789955,-6.573965 10.784111,-9.032917 17.141845,-6.326953 8.17371,3.478875 11.228498,13.424113 7.853658,21.33098 -4.330664,10.146256 -16.683013,13.935146 -26.500486,9.733135 -12.5746968,-5.38214 -17.2666477,-20.699584 -12.0433474,-32.869806 0.5587495,-1.301879 1.2182924,-2.560298 1.9689978,-3.761725"
       transform="scale(1,-1)" />
    <path
       style="fill:none;fill-rule:evenodd;stroke:#cda467;stroke-width:0.5;stroke-linecap:square;stroke-linejoin:miter;stroke-miterlimit:4;stroke-dasharray:none;stroke-opacity:1"
       d="m 7,60.797587 21,-17"
       id="path4187"
       inkscape:connector-curvature="0" />
  </g>
</svg>
